<?xml version="1.0" standalone="no"?>
<!DOCTYPE svg PUBLIC "-//W3C//DTD SVG 1.1//EN" "http://www.w3.org/Graphics/SVG/1.1/DTD/svg11.dtd" >
<svg xmlns="http://www.w3.org/2000/svg" xmlns:xlink="http://www.w3.org/1999/xlink" version="1.1">
<metadata></metadata>
<defs>
<font id="megatron_condensedregular" horiz-adv-x="1040" >
<font-face units-per-em="2048" ascent="1638" descent="-410" />
<missing-glyph horiz-adv-x="800" />
<glyph unicode="&#xd;" horiz-adv-x="80" />
<glyph horiz-adv-x="80" />
<glyph horiz-adv-x="80" />
<glyph unicode=" "  horiz-adv-x="800" />
<glyph unicode="&#x09;" horiz-adv-x="800" />
<glyph unicode="&#xa0;" horiz-adv-x="800" />
<glyph unicode="!" horiz-adv-x="441" d="M80 0v250h280v-250h-280zM80 350l1 1075h280v-1075h-281z" />
<glyph unicode="&#x22;" horiz-adv-x="800" d="M80 925v500h280v-250zM440 925v500h280v-250z" />
<glyph unicode="#" horiz-adv-x="1121" d="M80 275l1 275h120v150h-121v275h120l1 150h279v-150h160l1 150h279v-150h120v-275h-119v-150h120l-1 -275h-120v-150h-280v150h-160l-1 -150h-279v150h-120zM481 550h160v150h-160v-150z" />
<glyph unicode="$" d="M80 100l140 300h420q40 0 40 50v100q0 50 -40 50h-440q-120 0 -120 150v450q0 125 120 125h180v100h280v-100h300l-120 -300h-440q-40 0 -40 -50v-100q0 -50 40 -50h440q120 0 120 -150v-425q0 -150 -120 -150h-180v-100h-280v100h-300z" />
<glyph unicode="%" horiz-adv-x="1120" d="M80 0l253 600h-133q-120 0 -120 150v450q0 150 120 150h400q26 0 46 -7l34 82h280l-240 -570v-5h200q120 0 120 -150v-450q0 -150 -120 -150h-400q-68 0 -98 48l-62 -148h-280zM360 950q0 -50 40 -50t40 50v50q-1 50 -40 50q-40 0 -40 -50v-50zM680 450q0 -50 40 -50 t40 50v50q-1 50 -40 50q-40 0 -40 -50v-50z" />
<glyph unicode="&#x26;" d="M80 150v450q0 100 79 125q-79 25 -79 100v475q0 150 120 150h400q120 0 120 -150v-450q0 -100 -80 -125h40q120 0 120 -150v-275h160v-300h-760q-120 0 -120 150zM360 350q0 -50 40 -50h120v250q0 50 -40 50h-80q-40 0 -40 -50v-200zM360 875q1 -50 40 -50q40 0 40 50 v225q-1 50 -40 50q-40 0 -40 -50v-225z" />
<glyph unicode="'" horiz-adv-x="440" d="M80 925v500h280v-250z" />
<glyph unicode="(" horiz-adv-x="760" d="M80 -150v1725q0 150 120 150h480v-300h-280q-40 0 -40 -50v-1325q0 -50 40 -50h280v-300h-480q-119 1 -120 150z" />
<glyph unicode=")" horiz-adv-x="760" d="M80 0h280q40 0 40 50v1325q0 50 -40 50h-280v300h480q120 0 120 -150v-1725q-1 -149 -120 -150h-480v300z" />
<glyph unicode="*" horiz-adv-x="880" d="M80 800l90 100h-90v275h86l-86 100l160 150l200 -223l200 223l160 -150l-86 -100h86v-275h-90l90 -100l-180 -150l-180 208l-180 -208z" />
<glyph unicode="+" horiz-adv-x="880" d="M80 575v275h220v250h280v-250h220v-275h-219v-250h-281v250h-220z" />
<glyph unicode="," horiz-adv-x="440" d="M80 -250v500h280v-250z" />
<glyph unicode="-" horiz-adv-x="880" d="M80 575v275h720v-275h-720z" />
<glyph unicode="." horiz-adv-x="440" d="M80 0v250h280v-250h-280z" />
<glyph unicode="/" d="M80 0l600 1425h280l-600 -1425h-280z" />
<glyph unicode="0" d="M80 150v1125q0 150 120 150h640q120 0 120 -150v-1125q0 -150 -120 -150h-640q-120 0 -120 150zM360 350q0 -50 40 -50h240q40 0 40 50v725q-1 50 -40 50h-240q-40 0 -40 -50v-725z" />
<glyph unicode="1" horiz-adv-x="560" d="M81 1125l120 300h279v-1425h-280v1125h-119z" />
<glyph unicode="2" horiz-adv-x="1000" d="M80 0v675q0 150 120 150h400q40 0 40 50v200q0 50 -40 50h-520l120 300h560q160 0 160 -198v-502q0 -125 -120 -125h-400q-40 -1 -40 -50v-250h560l-1 -300h-839z" />
<glyph unicode="3" d="M80 0l120 300h440q39 0 40 50v200q0 50 -40 50h-200v225h200q39 0 40 50v200q0 50 -40 50h-560l120 300h640q120 0 120 -150v-450q-1 -75 -60 -100q60 -25 60 -100v-475q-2 -150 -120 -150h-760z" />
<glyph unicode="4" horiz-adv-x="999" d="M80 600v825h280v-600h280l-1 375h280v-1200h-279v600h-560z" />
<glyph unicode="5" horiz-adv-x="1000" d="M80 0l120 300h400q40 0 40 50v200q0 50 -40 50h-520v825h839l-119 -300h-440v-300h440q120 0 120 -150v-525q0 -150 -120 -150h-720z" />
<glyph unicode="6" d="M80 150v1125q0 150 120 150h760l-120 -300h-440q-40 0 -40 -50v-250h480q120 0 120 -149v-526q0 -150 -120 -150h-640q-120 0 -120 150zM360 350q0 -50 40 -50h240q40 0 40 50v200q0 50 -40 50h-280v-250z" />
<glyph unicode="7" horiz-adv-x="1000" d="M80 1125l120 300h720v-300l-440 -1125h-333l452 1125h-519z" />
<glyph unicode="8" d="M80 150v475q0 75 60 100q-59 25 -60 100v450q0 150 120 150h640q120 0 120 -150v-450q-1 -75 -60 -100q60 -25 60 -100v-475q-2 -150 -120 -150h-640q-120 0 -120 150zM360 350q1 -50 40 -50h240q39 0 40 50v200q0 50 -40 50h-240q-40 0 -40 -50v-200zM360 875 q1 -50 40 -50h240q39 0 40 50v200q0 50 -40 50h-240q-40 0 -40 -50v-200z" />
<glyph unicode="9" d="M80 0l120 300h440q40 0 40 50v250h-480q-120 0 -120 150v525q0 150 120 150h640q120 0 120 -150v-1125q0 -150 -120 -150h-760zM360 875q0 -50 40 -50h280v250q0 50 -40 50h-240q-40 0 -40 -50v-200z" />
<glyph unicode=":" horiz-adv-x="440" d="M80 0v250h280v-250h-280zM80 450v250h280v-250h-280z" />
<glyph unicode=";" horiz-adv-x="440" d="M80 -250v500h280v-250zM80 450v250h280v-250h-280z" />
<glyph unicode="&#x3c;" horiz-adv-x="880" d="M80 550v325l720 300v-275l-450 -187l450 -188v-275z" />
<glyph unicode="=" horiz-adv-x="880" d="M80 325v275h720v-275h-720zM80 825v275h720v-275h-720z" />
<glyph unicode="&#x3e;" horiz-adv-x="880" d="M80 250v275l450 188l-450 187v275l720 -300v-325z" />
<glyph unicode="?" d="M80 1125l120 300h640q120 0 120 -150v-525q0 -150 -120 -150h-220q-40 0 -40 -50v-200h-280v300q0 175 120 175h220q40 0 40 50v200q0 50 -40 50h-560zM300 0v250h280v-250h-280z" />
<glyph unicode="@" horiz-adv-x="1120" d="M80 150v1200q0 150 120 150h720q120 0 120 -149v-776q0 -150 -120 -150h-400q-120 0 -120 150v325q0 150 120 150h240v100q0 50 -40 50h-320q-40 0 -40 -50v-800q1 -50 40 -50h640l-120 -300h-720q-120 0 -120 150zM680 750q0 -75 40 -75t40 75v75h-40q-40 0 -40 -75z " />
<glyph unicode="A" horiz-adv-x="1340" d="M60 0l420 1425h340l440 -1425h-760l60 300h291l-191 825l-280 -1125h-320z" />
<glyph unicode="B" d="M80 0v1425h760q120 0 120 -150v-450q-1 -75 -60 -100q60 -25 60 -100v-475q-2 -150 -120 -150h-760zM360 300h280q39 0 40 50v200q0 50 -40 50h-280v-300zM360 825h280q39 0 40 50v200q0 50 -40 50h-280v-300z" />
<glyph unicode="C" d="M80 150v1125q0 150 120 150h760l-120 -300h-440q-40 0 -40 -50v-725q0 -50 40 -50h560l-120 -300h-640q-120 0 -120 150z" />
<glyph unicode="D" d="M80 0v1425h760q120 0 120 -150v-1125q0 -150 -120 -150h-760zM360 300h280q40 0 40 50v725q-1 50 -40 50h-280v-825z" />
<glyph unicode="E" d="M80 0v1425h880l-120 -300h-480v-300h440v-225h-440v-300h600l-120 -300h-760z" />
<glyph unicode="F" d="M80 -750v2175h880l-120 -300h-480v-300h440v-225h-440v-1100z" />
<glyph unicode="G" d="M80 150v1125q0 150 120 150h760l-120 -300h-440q-40 0 -40 -50v-725q0 -50 40 -50h280v300h-200v225h480v-825h-760q-120 0 -120 150z" />
<glyph unicode="H" horiz-adv-x="1079" d="M80 -750v2175h281l1 -600h358l-1 600h280v-1425h-279v600h-360v-1100z" />
<glyph unicode="I" horiz-adv-x="441" d="M80 -750v2175h281l-1 -1925z" />
<glyph unicode="J" horiz-adv-x="680" d="M80 0l120 300h80q40 0 40 50v1075h280v-1275q-3 -150 -120 -150h-400z" />
<glyph unicode="K" horiz-adv-x="1100" d="M80 -750v2175h281v-512l279 512h320l-320 -550l380 -875h-340l-319 823l-1 -1323z" />
<glyph unicode="L" d="M80 0v1425h280v-1125h600l-120 -300h-760z" />
<glyph unicode="M" horiz-adv-x="1480" d="M80 -750v2175h1200q120 0 120 -150v-1275h-280v1075q0 50 -40 50h-199v-1125h-281v1125h-239l-1 -1625z" />
<glyph unicode="N" d="M80 -750v2175h760q120 0 120 -150v-1275h-280v1075q0 50 -40 50h-279l-1 -1625z" />
<glyph unicode="O" d="M80 150v1125q0 150 120 150h640q120 0 120 -150v-1125q0 -150 -120 -150h-640q-120 0 -120 150zM360 350q0 -50 40 -50h240q40 0 40 50v725q-1 50 -40 50h-240q-40 0 -40 -50v-725z" />
<glyph unicode="P" d="M80 -750v2175h760q120 0 120 -150v-525q0 -150 -100 -150h-499l-1 -1100zM361 825h279q40 0 40 50v200q0 50 -40 50h-279v-300z" />
<glyph unicode="Q" horiz-adv-x="1050" d="M80 150v1125q0 150 120 150h640q120 0 120 -150v-1125q0 -9 -1 -18l61 -132h-820q-120 0 -120 150zM360 350q0 -50 40 -50h123l-163 356v-306zM360 700h320v375q-1 50 -40 50h-240q-40 0 -40 -50v-375z" />
<glyph unicode="R" horiz-adv-x="1050" d="M80 -750v2175h760q120 0 120 -150v-525q0 -150 -100 -150h-114l274 -600h-360l-300 656v-1156zM360 700h320v375q0 50 -40 50h-280v-425z" />
<glyph unicode="S" d="M80 0l140 300h420q40 0 40 50v200q0 50 -40 50h-440q-120 0 -120 150v550q0 125 120 125h760l-120 -300h-440q-40 0 -40 -50v-200q0 -50 40 -50h440q120 0 120 -150v-525q0 -150 -120 -150h-760z" />
<glyph unicode="T" horiz-adv-x="1001" d="M80 1425h841v-300h-221v-1625l-280 -250v1875h-339z" />
<glyph unicode="U" d="M79 1425h281v-1075q0 -50 40 -50h240q40 0 40 50v1075h280v-1275q-2 -150 -120 -150h-640q-119 0 -120 150z" />
<glyph unicode="V" horiz-adv-x="1340" d="M60 1425h320l280 -1125l260 1125h340l-440 -1425h-340z" />
<glyph unicode="W" horiz-adv-x="1480" d="M80 150v1275h280v-1075q1 -50 40 -50h200v1125h280v-1125h240v1125h280v-1425h-1200q-119 0 -120 150z" />
<glyph unicode="X" d="M80 0l300 713l-300 712h280l160 -380l160 380h280l-300 -712l300 -713h-280l-160 380l-160 -380h-280z" />
<glyph unicode="Y" horiz-adv-x="1000" d="M79 775l1 650h280v-500q1 -50 40 -50h200q40 0 40 50v500h280v-650q0 -150 -121 -150h-160l1 -1125l-280 -250v1375h-161q-119 0 -120 150z" />
<glyph unicode="Z" d="M80 0v300l560 825h-560v300h880v-300l-560 -825h560l-120 -300h-760z" />
<glyph unicode="[" horiz-adv-x="760" d="M80 1725h600v-300h-320v-1425h320v-300l-599 1z" />
<glyph unicode="\" d="M80 1425h280l600 -1425h-280z" />
<glyph unicode="]" horiz-adv-x="760" d="M80 0h320v1425h-320v300h600l-1 -2024l-599 -1v300z" />
<glyph unicode="^" horiz-adv-x="880" d="M40 1550l240 400h280l240 -400h-300l-80 125l-80 -125h-300z" />
<glyph unicode="_" d="M80 0h880v-300h-880v300z" />
<glyph unicode="`" horiz-adv-x="440" d="M80 1775v400l280 -250v-400z" />
<glyph unicode="a" horiz-adv-x="1340" d="M60 0l420 1425h340l440 -1425h-760l60 300h291l-191 825l-280 -1125h-320z" />
<glyph unicode="b" d="M80 0v1425h760q120 0 120 -150v-450q-1 -75 -60 -100q60 -25 60 -100v-475q-2 -150 -120 -150h-760zM360 300h280q39 0 40 50v200q0 50 -40 50h-280v-300zM360 825h280q39 0 40 50v200q0 50 -40 50h-280v-300z" />
<glyph unicode="c" d="M80 150v1125q0 150 120 150h760l-120 -300h-440q-40 0 -40 -50v-725q0 -50 40 -50h560l-120 -300h-640q-120 0 -120 150z" />
<glyph unicode="d" d="M80 0v1425h760q120 0 120 -150v-1125q0 -150 -120 -150h-760zM360 300h280q40 0 40 50v725q-1 50 -40 50h-280v-825z" />
<glyph unicode="e" d="M80 0v1425h880l-120 -300h-480v-300h440v-225h-440v-300h600l-120 -300h-760z" />
<glyph unicode="f" d="M80 0v1425h880l-120 -300h-480v-300h440v-225h-440v-600h-280z" />
<glyph unicode="g" d="M80 150v1125q0 150 120 150h760l-120 -300h-440q-40 0 -40 -50v-725q0 -50 40 -50h280v300h-200v225h480v-825h-760q-120 0 -120 150z" />
<glyph unicode="h" horiz-adv-x="1079" d="M80 0v1425h281l1 -600h358l-1 600h280v-1425h-279v600h-360v-600h-280z" />
<glyph unicode="i" horiz-adv-x="441" d="M80 0v1425h281l-1 -1425h-280z" />
<glyph unicode="j" horiz-adv-x="680" d="M80 0l120 300h80q40 0 40 50v1075h280v-1275q-3 -150 -120 -150h-400z" />
<glyph unicode="k" horiz-adv-x="1100" d="M80 0v1425h280v-513l280 513h320l-320 -550l380 -875h-340l-320 824v-824h-280z" />
<glyph unicode="l" d="M80 0v1425h280v-1125h600l-120 -300h-760z" />
<glyph unicode="m" horiz-adv-x="1480" d="M80 1425h1200q120 0 120 -150v-1275h-280v1075q0 50 -40 50h-199v-1125h-281v1125h-240v-1125h-279z" />
<glyph unicode="n" d="M80 0v1425h760q120 0 120 -150v-1275h-280v1075q0 50 -40 50h-280v-1125h-280z" />
<glyph unicode="o" d="M80 150v1125q0 150 120 150h640q120 0 120 -150v-1125q0 -150 -120 -150h-640q-120 0 -120 150zM360 350q0 -50 40 -50h240q40 0 40 50v725q-1 50 -40 50h-240q-40 0 -40 -50v-725z" />
<glyph unicode="p" d="M80 0v1425h760q120 0 120 -150v-525q0 -150 -100 -150h-500v-600h-280zM360 825h280q40 0 40 50v200q0 50 -40 50h-280v-300z" />
<glyph unicode="q" horiz-adv-x="1050" d="M80 150v1125q0 150 120 150h640q120 0 120 -150v-1125q0 -9 -1 -18l61 -132h-820q-120 0 -120 150zM360 350q0 -50 40 -50h123l-163 356v-306zM360 700h320v375q-1 50 -40 50h-240q-40 0 -40 -50v-375z" />
<glyph unicode="r" horiz-adv-x="1050" d="M80 0v1425h760q120 0 120 -150v-525q0 -150 -100 -150h-114l274 -600h-360l-300 656v-656h-280zM360 700h320v375q0 50 -40 50h-280v-425z" />
<glyph unicode="s" d="M80 0l140 300h420q40 0 40 50v200q0 50 -40 50h-440q-120 0 -120 150v550q0 125 120 125h760l-120 -300h-440q-40 0 -40 -50v-200q0 -50 40 -50h440q120 0 120 -150v-525q0 -150 -120 -150h-760z" />
<glyph unicode="t" horiz-adv-x="1001" d="M80 1425h841v-300h-221v-1125h-280v1125h-339z" />
<glyph unicode="u" d="M79 1425h281v-1075q0 -50 40 -50h240q40 0 40 50v1075h280v-1275q-2 -150 -120 -150h-640q-119 0 -120 150z" />
<glyph unicode="v" horiz-adv-x="1340" d="M60 1425h320l280 -1125l260 1125h340l-440 -1425h-340z" />
<glyph unicode="w" horiz-adv-x="1480" d="M80 150v1275h280v-1075q1 -50 40 -50h200v1125h280v-1125h240v1125h280v-1425h-1200q-119 0 -120 150z" />
<glyph unicode="x" d="M80 0l300 713l-300 712h280l160 -380l160 380h280l-300 -712l300 -713h-280l-160 380l-160 -380h-280z" />
<glyph unicode="y" horiz-adv-x="1000" d="M79 775l1 650h280v-500q1 -50 40 -50h200q40 0 40 50v500h280v-650q0 -150 -121 -150h-160l1 -625h-280v625h-161q-119 0 -120 150z" />
<glyph unicode="z" d="M80 0v300l560 825h-560v300h880v-300l-560 -825h560l-120 -300h-760z" />
<glyph unicode="{" horiz-adv-x="1630" d="M100 1350l260 -25l50 -165q241 -152 241 -164q3 -6 49 -296l-285 50l-215 150zM225 850l175 -125l10 -65l94 -57l-4 -478l-225 200zM250 1175l10 -50l300 -200l-10 50zM275 1050l10 -50l300 -200l-10 50zM390 1325q185 75 385 75h100q200 0 385 -75l-35 -145l-397 -262 l-3 2l-3 -2l-397 262zM525 100v500l174 75l1 -350h250l1 350l174 -75v-500l-100 -75l-69 201h-262l-69 -201zM650 0l60 200l115 1l115 -1l60 -200h-350zM674 1225l151 -125l151 125h-302zM675 985l150 -92l150 92l-49 -310l-1 -325h-200l-1 325zM950 700q46 290 49 296 q0 12 241 164l50 165l260 25l-100 -450l-215 -150zM1065 800l300 200l10 50l-300 -200zM1090 925l300 200l10 50l-300 -200zM1146 603l94 57l10 65l175 125l-50 -525l-225 -200z" />
<glyph unicode="|" horiz-adv-x="440" d="M80 1725h280v-2025l-279 1z" />
<glyph unicode="}" horiz-adv-x="1430" d="M100 1450l215 -275l191 -65l32 -131l-195 56l7 -37l200 -59l24 -99l-183 50l9 -37l215 -68l110 -114l110 114l215 68l9 37l-183 -50l24 99l200 59l7 37l-195 -56l32 131l191 65l215 275l-115 -625l-510 -825l-510 825zM225 760l425 -695l-339 160zM415 740l35 -65 l175 -85l-40 100zM475 1400l175 -225h150l175 225l-122 -543l-128 -157l-128 157zM676 1050l49 -175l49 175h-98zM800 65l425 695l-86 -535zM825 590l175 85l35 65l-170 -50z" />
<glyph unicode="~" horiz-adv-x="961" d="M80 1625l41 200q40 200 140 200h100q60 0 110 -75t70 -75t40 50l19 100h281l-40 -250q-40 -150 -160 -150h-100q-59 0 -99.5 75t-60.5 75t-40 -50l-21 -100h-280z" />
<glyph unicode="&#xa1;" horiz-adv-x="441" d="M80 0v1075h281l-1 -1075h-280zM81 1175v250h280v-250h-280z" />
<glyph unicode="&#xa2;" d="M80 250v825q0 150 120 150h180v100h280v-100h300l-120 -300h-440q-40 0 -40 -50v-425q0 -50 40 -50h560l-120 -300h-180v-100h-280v100h-180q-120 0 -120 150z" />
<glyph unicode="&#xa3;" d="M80 0v300h160v300h-160v225h160v450q0 150 120 150h600l-120 -300h-280q-40 0 -40 -50v-250h160v-225h-160v-300h440v-300h-880z" />
<glyph unicode="&#xa4;" d="M80 0l118 279q-38 37 -38 121v650q0 75 30 113l-110 262h280l94 -225h132l94 225h280l-110 -262q30 -38 30 -113v-650q0 -84 -38 -121l118 -279h-280l-106 250h-108l-106 -250h-280zM440 600q0 -50 40 -50h80q40 0 40 50v250q-1 50 -40 50h-80q-40 0 -40 -50v-250z" />
<glyph unicode="&#xa5;" horiz-adv-x="1000" d="M79 775l1 650h280v-500q1 -50 40 -50h200q40 0 40 50v500h280v-650q0 -150 -121 -150h-160v-50h221v-275h-220v-300h-280v300h-220v275h220v50h-161q-119 0 -120 150z" />
<glyph unicode="&#xa6;" horiz-adv-x="440" d="M80 850v875h280v-875h-280zM81 -299v874h279v-875z" />
<glyph unicode="&#xa7;" d="M80 -175l140 300h420q40 0 40 50v50h-400q-120 0 -120 150v230q-80 23 -80 145v700q0 125 120 125h760l-120 -300h-440q-40 0 -40 -50v-50h400q120 0 120 -150v-205q80 -23 80 -145v-700q0 -150 -120 -150h-760zM440 575q0 -50 40 -50h80q40 0 40 50v250q-1 50 -40 50 h-80q-40 0 -40 -50v-250z" />
<glyph unicode="&#xa8;" horiz-adv-x="920" d="M80 1575v250h280v-250h-280zM560 1575v250h280v-250h-280z" />
<glyph unicode="&#xa9;" horiz-adv-x="920" d="M80 1075q0 238 111 406.5t269 168.5t269 -168.5t111 -406.5t-111 -406.5t-269 -168.5t-269 168.5t-111 406.5zM160 1075q0 -197 88 -336t212 -139t212 139t88 336q0 195 -86 334l-54 -134h-220q-20 0 -20 -25v-362q0 -25 20 -25h280l-60 -150h-320q-60 0 -60 75v562 q0 75 60 75h363q-85 125 -203 125q-124 0 -212 -139t-88 -336z" />
<glyph unicode="&#xaa;" horiz-adv-x="1600" d="M0 200v1100q0 200 200 200h1100q200 0 200 -200v-1100q0 -200 -200 -200h-1100q-200 0 -200 200zM25 200q1 -175 175 -175h1101q174 0 174 176v1099q0 175 -175 175h-1100q-174 0 -175 -175v-1100z" />
<glyph unicode="&#xab;" horiz-adv-x="1640" d="M80 550v325l720 300v-275l-450 -187l450 -188v-275zM840 550v325l720 300v-275l-450 -187l450 -188v-275z" />
<glyph unicode="&#xac;" horiz-adv-x="1600" d="M0 200v1100q0 200 200 200h1100q200 0 200 -200v-1100q0 -200 -200 -200h-1100q-200 0 -200 200zM25 200q1 -175 175 -175h1101q174 0 174 176v1099q0 175 -175 175h-1100q-174 0 -175 -175v-1100z" />
<glyph unicode="&#xad;" horiz-adv-x="880" d="M80 575v275h720v-275h-720z" />
<glyph unicode="&#xae;" horiz-adv-x="920" d="M80 1075q0 238 111 406.5t269 168.5t269 -168.5t111 -406.5t-111 -406.5t-269 -168.5t-269 168.5t-111 406.5zM160 1075q0 -188 80 -323v646q-80 -135 -80 -323zM257 1425h363q60 0 60 -75v-262q0 -75 -50 -75h-57l114 -249q73 132 73 311q0 197 -88 336t-212 139 q-118 0 -203 -125zM266 713q82 -113 194 -113t194 113h-124l-150 328v-328h-114zM380 1063h160v187q0 25 -20 25h-140v-212z" />
<glyph unicode="&#xaf;" horiz-adv-x="1600" d="M0 200v1100q0 200 200 200h1100q200 0 200 -200v-1100q0 -200 -200 -200h-1100q-200 0 -200 200zM25 200q1 -175 175 -175h1101q174 0 174 176v1099q0 175 -175 175h-1100q-174 0 -175 -175v-1100z" />
<glyph unicode="&#xb0;" horiz-adv-x="653" d="M128 1164q0 116 65 197t158 81q92 0 157 -81.5t65 -196.5q0 -114 -65.5 -196t-157.5 -82q-94 0 -158 81t-64 197zM184 1163q0 -87 49 -147t118 -60q70 0 118 60t48 147t-48.5 148t-117.5 61t-118 -61t-49 -148z" />
<glyph unicode="&#xb1;" horiz-adv-x="1600" d="M0 200v1100q0 200 200 200h1100q200 0 200 -200v-1100q0 -200 -200 -200h-1100q-200 0 -200 200zM25 200q1 -175 175 -175h1101q174 0 174 176v1099q0 175 -175 175h-1100q-174 0 -175 -175v-1100z" />
<glyph unicode="&#xb2;" horiz-adv-x="1600" d="M0 200v1100q0 200 200 200h1100q200 0 200 -200v-1100q0 -200 -200 -200h-1100q-200 0 -200 200zM25 200q1 -175 175 -175h1101q174 0 174 176v1099q0 175 -175 175h-1100q-174 0 -175 -175v-1100z" />
<glyph unicode="&#xb3;" horiz-adv-x="1600" d="M0 200v1100q0 200 200 200h1100q200 0 200 -200v-1100q0 -200 -200 -200h-1100q-200 0 -200 200zM25 200q1 -175 175 -175h1101q174 0 174 176v1099q0 175 -175 175h-1100q-174 0 -175 -175v-1100z" />
<glyph unicode="&#xb4;" horiz-adv-x="440" d="M80 1525v400l280 250v-400z" />
<glyph unicode="&#xb5;" d="M79 1425h282l-1 -1084q4 -41 40 -41h240q40 0 40 50v1075h280v-1275q-2 -150 -120 -150h-480v-500l-280 -250v900z" />
<glyph unicode="&#xb6;" d="M80 750v525q0 150 120 150h760v-1425h-280l-1 600h-119v-600h-280v600h-100q-100 0 -100 150z" />
<glyph unicode="&#xb7;" horiz-adv-x="440" d="M80 450v250h280v-250h-280z" />
<glyph unicode="&#xb8;" horiz-adv-x="680" d="M80 -400l120 300h80q40 0 40 50v100h280v-300q0 -150 -120 -150h-400z" />
<glyph unicode="&#xb9;" horiz-adv-x="1600" d="M0 200v1100q0 200 200 200h1100q200 0 200 -200v-1100q0 -200 -200 -200h-1100q-200 0 -200 200zM25 200q1 -175 175 -175h1101q174 0 174 176v1099q0 175 -175 175h-1100q-174 0 -175 -175v-1100z" />
<glyph unicode="&#xba;" horiz-adv-x="1600" d="M0 200v1100q0 200 200 200h1100q200 0 200 -200v-1100q0 -200 -200 -200h-1100q-200 0 -200 200zM25 200q1 -175 175 -175h1101q174 0 174 176v1099q0 175 -175 175h-1100q-174 0 -175 -175v-1100z" />
<glyph unicode="&#xbb;" horiz-adv-x="1640" d="M80 250v275l450 188l-450 187v275l720 -300v-325zM840 250v275l450 188l-450 187v275l720 -300v-325z" />
<glyph unicode="&#xbc;" horiz-adv-x="1600" d="M0 200v1100q0 200 200 200h1100q200 0 200 -200v-1100q0 -200 -200 -200h-1100q-200 0 -200 200zM25 200q1 -175 175 -175h1101q174 0 174 176v1099q0 175 -175 175h-1100q-174 0 -175 -175v-1100z" />
<glyph unicode="&#xbd;" horiz-adv-x="1600" d="M0 200v1100q0 200 200 200h1100q200 0 200 -200v-1100q0 -200 -200 -200h-1100q-200 0 -200 200zM25 200q1 -175 175 -175h1101q174 0 174 176v1099q0 175 -175 175h-1100q-174 0 -175 -175v-1100z" />
<glyph unicode="&#xbe;" horiz-adv-x="1600" d="M0 200v1100q0 200 200 200h1100q200 0 200 -200v-1100q0 -200 -200 -200h-1100q-200 0 -200 200zM25 200q1 -175 175 -175h1101q174 0 174 176v1099q0 175 -175 175h-1100q-174 0 -175 -175v-1100z" />
<glyph unicode="&#xbf;" d="M80 150v525q0 150 120 150h220q40 0 40 50v200h280v-300q0 -175 -120 -175h-220q-40 0 -40 -50v-200q0 -50 40 -50h560l-120 -300h-640q-120 0 -120 150zM460 1175v250h280v-250h-280z" />
<glyph unicode="&#xc0;" horiz-adv-x="1340" d="M60 0l420 1425h340l440 -1425h-760l60 300h291l-191 825l-280 -1125h-320zM500 1775v400l280 -250v-400z" />
<glyph unicode="&#xc1;" horiz-adv-x="1340" d="M60 0l420 1425h340l440 -1425h-760l60 300h291l-191 825l-280 -1125h-320zM500 1525v400l280 250v-400z" />
<glyph unicode="&#xc2;" horiz-adv-x="1340" d="M60 0l420 1425h340l440 -1425h-760l60 300h291l-191 825l-280 -1125h-320zM280 1550l240 400h280l240 -400h-300l-80 125l-80 -125h-300z" />
<glyph unicode="&#xc3;" horiz-adv-x="1340" d="M60 0l420 1425h340l440 -1425h-760l60 300h291l-191 825l-280 -1125h-320zM259 1625l41 200q40 200 140 200h100q60 0 110 -75t70 -75t40 50l19 100h281l-40 -250q-40 -150 -160 -150h-100q-59 0 -99.5 75t-60.5 75t-40 -50l-21 -100h-280z" />
<glyph unicode="&#xc4;" horiz-adv-x="1340" d="M60 0l420 1425h340l440 -1425h-760l60 300h291l-191 825l-280 -1125h-320zM260 1575v250h280v-250h-280zM740 1575v250h280v-250h-280z" />
<glyph unicode="&#xc5;" horiz-adv-x="1340" d="M60 0l420 1425h340l440 -1425h-760l60 300h291l-191 825l-280 -1125h-320zM500 1575v250h280v-250h-280z" />
<glyph unicode="&#xc6;" horiz-adv-x="1760" d="M60 0l420 1425h1200l-120 -300h-480v-300h440v-225h-440v-300h600l-120 -300h-1060l60 300h240v221l-140 604l-280 -1125h-320z" />
<glyph unicode="&#xc7;" d="M80 150v1125q0 150 120 150h760l-120 -300h-440q-40 0 -40 -50v-725q0 -50 40 -50h560l-120 -300h-120v-250q0 -150 -120 -150h-400l120 300h80q40 0 40 50v50h-240q-120 0 -120 150z" />
<glyph unicode="&#xc8;" d="M80 0v1425h880l-120 -300h-480v-300h440v-225h-440v-300h600l-120 -300h-760zM380 1775v400l280 -250v-400z" />
<glyph unicode="&#xc9;" d="M80 0v1425h880l-120 -300h-480v-300h440v-225h-440v-300h600l-120 -300h-760zM380 1525v400l280 250v-400z" />
<glyph unicode="&#xca;" d="M80 0v1425h880l-120 -300h-480v-300h440v-225h-440v-300h600l-120 -300h-760zM140 1550l240 400h280l240 -400h-300l-80 125l-80 -125h-300z" />
<glyph unicode="&#xcb;" d="M80 0v1425h880l-120 -300h-480v-300h440v-225h-440v-300h600l-120 -300h-760zM140 1575v250h280v-250h-280zM620 1575v250h280v-250h-280z" />
<glyph unicode="&#xcc;" horiz-adv-x="441" d="M80 -750v2175h281l-1 -1925zM80 1775v400l280 -250v-400z" />
<glyph unicode="&#xcd;" horiz-adv-x="441" d="M80 -750v2175h281l-1 -1925zM80 1525v400l280 250v-400z" />
<glyph unicode="&#xce;" horiz-adv-x="680" d="M-160 1550l240 400h280l240 -400h-300l-80 125l-80 -125h-300zM80 -750v2175h281l-1 -1925z" />
<glyph unicode="&#xcf;" horiz-adv-x="680" d="M-160 1575v250h280v-250h-280zM80 -750v2175h281l-1 -1925zM320 1575v250h280v-250h-280z" />
<glyph unicode="&#xd0;" d="M80 575v275h160v575h600q120 0 120 -150v-1125q0 -150 -120 -150h-600v575h-160zM520 300h120q40 0 40 50v225h-160v-275zM520 850h160v225q-1 50 -40 50h-120v-275z" />
<glyph unicode="&#xd1;" d="M80 -750v2175h760q120 0 120 -150v-1275h-280v1075q0 50 -40 50h-279l-1 -1625zM119 1625l41 200q40 200 140 200h100q60 0 110 -75t70 -75t40 50l19 100h281l-40 -250q-40 -150 -160 -150h-100q-59 0 -99.5 75t-60.5 75t-40 -50l-21 -100h-280z" />
<glyph unicode="&#xd2;" d="M80 150v1125q0 150 120 150h640q120 0 120 -150v-1125q0 -150 -120 -150h-640q-120 0 -120 150zM360 350q0 -50 40 -50h240q40 0 40 50v725q-1 50 -40 50h-240q-40 0 -40 -50v-725zM380 1775v400l280 -250v-400z" />
<glyph unicode="&#xd3;" d="M80 150v1125q0 150 120 150h640q120 0 120 -150v-1125q0 -150 -120 -150h-640q-120 0 -120 150zM360 350q0 -50 40 -50h240q40 0 40 50v725q-1 50 -40 50h-240q-40 0 -40 -50v-725zM380 1525v400l280 250v-400z" />
<glyph unicode="&#xd4;" d="M80 150v1125q0 150 120 150h640q120 0 120 -150v-1125q0 -150 -120 -150h-640q-120 0 -120 150zM140 1550l240 400h280l240 -400h-300l-80 125l-80 -125h-300zM360 350q0 -50 40 -50h240q40 0 40 50v725q-1 50 -40 50h-240q-40 0 -40 -50v-725z" />
<glyph unicode="&#xd5;" d="M80 150v1125q0 150 120 150h640q120 0 120 -150v-1125q0 -150 -120 -150h-640q-120 0 -120 150zM119 1625l41 200q40 200 140 200h100q60 0 110 -75t70 -75t40 50l19 100h281l-40 -250q-40 -150 -160 -150h-100q-59 0 -99.5 75t-60.5 75t-40 -50l-21 -100h-280zM360 350 q0 -50 40 -50h240q40 0 40 50v725q-1 50 -40 50h-240q-40 0 -40 -50v-725z" />
<glyph unicode="&#xd6;" d="M80 150v1125q0 150 120 150h640q120 0 120 -150v-1125q0 -150 -120 -150h-640q-120 0 -120 150zM140 1575v250h280v-250h-280zM360 350q0 -50 40 -50h240q40 0 40 50v725q-1 50 -40 50h-240q-40 0 -40 -50v-725zM620 1575v250h280v-250h-280z" />
<glyph unicode="&#xd7;" horiz-adv-x="840" d="M80 225l200 488l-200 462h280l60 -130l60 130h280l-200 -462l200 -488h-280l-60 155l-60 -155h-280z" />
<glyph unicode="&#xd8;" d="M80 150v1125q0 150 120 150h640q110 0 119 -125h1l-1 -2q1 -11 1 -23v-1125q0 -150 -120 -150h-640q-120 0 -120 150zM360 687l229 438h-189q-40 0 -40 -50v-388zM438 300h202q40 0 40 50v413z" />
<glyph unicode="&#xd9;" d="M79 1425h281v-1075q0 -50 40 -50h240q40 0 40 50v1075h280v-1275q-2 -150 -120 -150h-640q-119 0 -120 150zM380 1775v400l280 -250v-400z" />
<glyph unicode="&#xda;" d="M79 1425h281v-1075q0 -50 40 -50h240q40 0 40 50v1075h280v-1275q-2 -150 -120 -150h-640q-119 0 -120 150zM380 1525v400l280 250v-400z" />
<glyph unicode="&#xdb;" d="M79 1425h281v-1075q0 -50 40 -50h240q40 0 40 50v1075h280v-1275q-2 -150 -120 -150h-640q-119 0 -120 150zM140 1550l240 400h280l240 -400h-300l-80 125l-80 -125h-300z" />
<glyph unicode="&#xdc;" d="M79 1425h281v-1075q0 -50 40 -50h240q40 0 40 50v1075h280v-1275q-2 -150 -120 -150h-640q-119 0 -120 150zM140 1575v250h280v-250h-280zM620 1575v250h280v-250h-280z" />
<glyph unicode="&#xdd;" horiz-adv-x="1000" d="M79 775l1 650h280v-500q1 -50 40 -50h200q40 0 40 50v500h280v-650q0 -150 -121 -150h-160l1 -1125l-280 -250v1375h-161q-119 0 -120 150zM360 1525v400l280 250v-400z" />
<glyph unicode="&#xde;" d="M80 -750v2175h281v-250h479q120 0 120 -150v-575q0 -150 -100 -150h-500v-800zM361 575h279q40 0 40 50v200q0 50 -40 50h-279v-300z" />
<glyph unicode="&#xdf;" d="M80 -750v2025q0 150 120 150h640q120 0 120 -150v-450q-1 -75 -60 -100q60 -25 60 -100v-475q-2 -150 -120 -150h-400v300h200q39 0 40 50v200q0 50 -40 50h-200v225h200q39 0 40 50v200q0 50 -40 50h-240q-40 0 -40 -50v-1575z" />
<glyph unicode="&#xe0;" horiz-adv-x="1340" d="M60 0l420 1425h340l440 -1425h-760l60 300h291l-191 825l-280 -1125h-320zM500 1775v400l280 -250v-400z" />
<glyph unicode="&#xe1;" horiz-adv-x="1340" d="M60 0l420 1425h340l440 -1425h-760l60 300h291l-191 825l-280 -1125h-320zM500 1525v400l280 250v-400z" />
<glyph unicode="&#xe2;" horiz-adv-x="1340" d="M60 0l420 1425h340l440 -1425h-760l60 300h291l-191 825l-280 -1125h-320zM280 1550l240 400h280l240 -400h-300l-80 125l-80 -125h-300z" />
<glyph unicode="&#xe3;" horiz-adv-x="1340" d="M60 0l420 1425h340l440 -1425h-760l60 300h291l-191 825l-280 -1125h-320zM259 1625l41 200q40 200 140 200h100q60 0 110 -75t70 -75t40 50l19 100h281l-40 -250q-40 -150 -160 -150h-100q-59 0 -99.5 75t-60.5 75t-40 -50l-21 -100h-280z" />
<glyph unicode="&#xe4;" horiz-adv-x="1340" d="M60 0l420 1425h340l440 -1425h-760l60 300h291l-191 825l-280 -1125h-320zM260 1575v250h280v-250h-280zM740 1575v250h280v-250h-280z" />
<glyph unicode="&#xe5;" horiz-adv-x="1340" d="M60 0l420 1425h340l440 -1425h-760l60 300h291l-191 825l-280 -1125h-320zM500 1575v250h280v-250h-280z" />
<glyph unicode="&#xe6;" horiz-adv-x="1760" d="M60 0l420 1425h1200l-120 -300h-480v-300h440v-225h-440v-300h600l-120 -300h-1060l60 300h240v221l-140 604l-280 -1125h-320z" />
<glyph unicode="&#xe7;" d="M80 150v1125q0 150 120 150h760l-120 -300h-440q-40 0 -40 -50v-725q0 -50 40 -50h560l-120 -300h-120v-250q0 -150 -120 -150h-400l120 300h80q40 0 40 50v50h-240q-120 0 -120 150z" />
<glyph unicode="&#xe8;" d="M80 0v1425h880l-120 -300h-480v-300h440v-225h-440v-300h600l-120 -300h-760zM380 1775v400l280 -250v-400z" />
<glyph unicode="&#xe9;" d="M80 0v1425h880l-120 -300h-480v-300h440v-225h-440v-300h600l-120 -300h-760zM380 1525v400l280 250v-400z" />
<glyph unicode="&#xea;" d="M80 0v1425h880l-120 -300h-480v-300h440v-225h-440v-300h600l-120 -300h-760zM140 1550l240 400h280l240 -400h-300l-80 125l-80 -125h-300z" />
<glyph unicode="&#xeb;" d="M80 0v1425h880l-120 -300h-480v-300h440v-225h-440v-300h600l-120 -300h-760zM140 1575v250h280v-250h-280zM620 1575v250h280v-250h-280z" />
<glyph unicode="&#xec;" horiz-adv-x="441" d="M80 0v1425h281l-1 -1425h-280zM80 1775v400l280 -250v-400z" />
<glyph unicode="&#xed;" horiz-adv-x="441" d="M80 0v1425h281l-1 -1425h-280zM80 1525v400l280 250v-400z" />
<glyph unicode="&#xee;" horiz-adv-x="680" d="M-160 1550l240 400h280l240 -400h-300l-80 125l-80 -125h-300zM80 0v1425h281l-1 -1425h-280z" />
<glyph unicode="&#xef;" horiz-adv-x="680" d="M-160 1575v250h280v-250h-280zM80 0v1425h281l-1 -1425h-280zM320 1575v250h280v-250h-280z" />
<glyph unicode="&#xf0;" d="M80 575v275h160v575h600q120 0 120 -150v-1125q0 -150 -120 -150h-600v575h-160zM520 300h120q40 0 40 50v225h-160v-275zM520 850h160v225q-1 50 -40 50h-120v-275z" />
<glyph unicode="&#xf1;" d="M80 0v1425h760q120 0 120 -150v-1275h-280v1075q0 50 -40 50h-280v-1125h-280zM119 1625l41 200q40 200 140 200h100q60 0 110 -75t70 -75t40 50l19 100h281l-40 -250q-40 -150 -160 -150h-100q-59 0 -99.5 75t-60.5 75t-40 -50l-21 -100h-280z" />
<glyph unicode="&#xf2;" d="M80 150v1125q0 150 120 150h640q120 0 120 -150v-1125q0 -150 -120 -150h-640q-120 0 -120 150zM360 350q0 -50 40 -50h240q40 0 40 50v725q-1 50 -40 50h-240q-40 0 -40 -50v-725zM380 1775v400l280 -250v-400z" />
<glyph unicode="&#xf3;" d="M80 150v1125q0 150 120 150h640q120 0 120 -150v-1125q0 -150 -120 -150h-640q-120 0 -120 150zM360 350q0 -50 40 -50h240q40 0 40 50v725q-1 50 -40 50h-240q-40 0 -40 -50v-725zM380 1525v400l280 250v-400z" />
<glyph unicode="&#xf4;" d="M80 150v1125q0 150 120 150h640q120 0 120 -150v-1125q0 -150 -120 -150h-640q-120 0 -120 150zM140 1550l240 400h280l240 -400h-300l-80 125l-80 -125h-300zM360 350q0 -50 40 -50h240q40 0 40 50v725q-1 50 -40 50h-240q-40 0 -40 -50v-725z" />
<glyph unicode="&#xf5;" d="M80 150v1125q0 150 120 150h640q120 0 120 -150v-1125q0 -150 -120 -150h-640q-120 0 -120 150zM119 1625l41 200q40 200 140 200h100q60 0 110 -75t70 -75t40 50l19 100h281l-40 -250q-40 -150 -160 -150h-100q-59 0 -99.5 75t-60.5 75t-40 -50l-21 -100h-280zM360 350 q0 -50 40 -50h240q40 0 40 50v725q-1 50 -40 50h-240q-40 0 -40 -50v-725z" />
<glyph unicode="&#xf6;" d="M80 150v1125q0 150 120 150h640q120 0 120 -150v-1125q0 -150 -120 -150h-640q-120 0 -120 150zM140 1575v250h280v-250h-280zM360 350q0 -50 40 -50h240q40 0 40 50v725q-1 50 -40 50h-240q-40 0 -40 -50v-725zM620 1575v250h280v-250h-280z" />
<glyph unicode="&#xf7;" horiz-adv-x="880" d="M80 575v275h720v-275h-720zM300 225v250h280v-250h-280zM300 950v250h280v-250h-280z" />
<glyph unicode="&#xf8;" d="M80 150v1125q0 150 120 150h640q110 0 119 -125h1l-1 -2q1 -11 1 -23v-1125q0 -150 -120 -150h-640q-120 0 -120 150zM360 687l229 438h-189q-40 0 -40 -50v-388zM438 300h202q40 0 40 50v413z" />
<glyph unicode="&#xf9;" d="M79 1425h281v-1075q0 -50 40 -50h240q40 0 40 50v1075h280v-1275q-2 -150 -120 -150h-640q-119 0 -120 150zM380 1775v400l280 -250v-400z" />
<glyph unicode="&#xfa;" d="M79 1425h281v-1075q0 -50 40 -50h240q40 0 40 50v1075h280v-1275q-2 -150 -120 -150h-640q-119 0 -120 150zM380 1525v400l280 250v-400z" />
<glyph unicode="&#xfb;" d="M79 1425h281v-1075q0 -50 40 -50h240q40 0 40 50v1075h280v-1275q-2 -150 -120 -150h-640q-119 0 -120 150zM140 1550l240 400h280l240 -400h-300l-80 125l-80 -125h-300z" />
<glyph unicode="&#xfc;" d="M79 1425h281v-1075q0 -50 40 -50h240q40 0 40 50v1075h280v-1275q-2 -150 -120 -150h-640q-119 0 -120 150zM140 1575v250h280v-250h-280zM620 1575v250h280v-250h-280z" />
<glyph unicode="&#xfd;" horiz-adv-x="1000" d="M79 775l1 650h280v-500q1 -50 40 -50h200q40 0 40 50v500h280v-650q0 -150 -121 -150h-160l1 -625h-280v625h-161q-119 0 -120 150zM360 1525v400l280 250v-400z" />
<glyph unicode="&#xfe;" d="M80 0v1425h280v-250h480q120 0 120 -150v-575q0 -150 -100 -150h-500v-300h-280zM360 575h280q40 0 40 50v200q0 50 -40 50h-280v-300z" />
<glyph unicode="&#xff;" horiz-adv-x="1000" d="M79 775l1 650h280v-500q1 -50 40 -50h200q40 0 40 50v500h280v-650q0 -150 -121 -150h-160l1 -625h-280v625h-161q-119 0 -120 150zM120 1575v250h280v-250h-280zM600 1575v250h280v-250h-280z" />
<glyph unicode="&#x152;" horiz-adv-x="1640" d="M80 150v1125q0 150 120 150h1360l-120 -300h-480v-300h440v-225h-440v-300h600l-120 -300h-1240q-120 0 -120 150zM360 350q0 -50 40 -50h240q40 0 40 50v725q-1 50 -40 50h-240q-40 0 -40 -50v-725z" />
<glyph unicode="&#x153;" horiz-adv-x="1640" d="M80 150v1125q0 150 120 150h1360l-120 -300h-480v-300h440v-225h-440v-300h600l-120 -300h-1240q-120 0 -120 150zM360 350q0 -50 40 -50h240q40 0 40 50v725q-1 50 -40 50h-240q-40 0 -40 -50v-725z" />
<glyph unicode="&#x2c6;" horiz-adv-x="880" d="M40 1550l240 400h280l240 -400h-300l-80 125l-80 -125h-300z" />
<glyph unicode="&#x2dc;" horiz-adv-x="961" d="M80 1625l41 200q40 200 140 200h100q60 0 110 -75t70 -75t40 50l19 100h281l-40 -250q-40 -150 -160 -150h-100q-59 0 -99.5 75t-60.5 75t-40 -50l-21 -100h-280z" />
<glyph unicode="&#x2000;" horiz-adv-x="1087" />
<glyph unicode="&#x2001;" horiz-adv-x="2175" />
<glyph unicode="&#x2002;" horiz-adv-x="1087" />
<glyph unicode="&#x2003;" horiz-adv-x="2175" />
<glyph unicode="&#x2004;" horiz-adv-x="725" />
<glyph unicode="&#x2005;" horiz-adv-x="543" />
<glyph unicode="&#x2006;" horiz-adv-x="362" />
<glyph unicode="&#x2007;" horiz-adv-x="362" />
<glyph unicode="&#x2008;" horiz-adv-x="271" />
<glyph unicode="&#x2009;" horiz-adv-x="435" />
<glyph unicode="&#x200a;" horiz-adv-x="120" />
<glyph unicode="&#x2010;" horiz-adv-x="880" d="M80 575v275h720v-275h-720z" />
<glyph unicode="&#x2011;" horiz-adv-x="880" d="M80 575v275h720v-275h-720z" />
<glyph unicode="&#x2012;" horiz-adv-x="880" d="M80 575v275h720v-275h-720z" />
<glyph unicode="&#x2013;" horiz-adv-x="1000" d="M80 575v275h840v-275h-840z" />
<glyph unicode="&#x2014;" horiz-adv-x="1120" d="M80 575v275h960v-275h-960z" />
<glyph unicode="&#x2018;" horiz-adv-x="440" d="M80 1175v250h280v-500z" />
<glyph unicode="&#x2019;" horiz-adv-x="440" d="M80 925v500h280v-250z" />
<glyph unicode="&#x201a;" horiz-adv-x="440" d="M80 -250v500h280v-250z" />
<glyph unicode="&#x201c;" horiz-adv-x="800" d="M80 1175v250h280v-500zM440 1175v250h280v-500z" />
<glyph unicode="&#x201d;" horiz-adv-x="800" d="M80 925v500h280v-250zM440 925v500h280v-250z" />
<glyph unicode="&#x201e;" horiz-adv-x="800" d="M80 -250v500h280v-250zM440 -250v500h280v-250z" />
<glyph unicode="&#x2022;" horiz-adv-x="806" d="M253 718q0 123 69.5 209t167.5 86t167 -86.5t69 -208.5t-70 -209.5t-167 -87.5q-99 0 -167.5 87t-68.5 210z" />
<glyph unicode="&#x2026;" horiz-adv-x="1160" d="M80 0v250h280v-250h-280zM440 0v250h280v-250h-280zM800 0v250h280v-250h-280z" />
<glyph unicode="&#x202f;" horiz-adv-x="435" />
<glyph unicode="&#x2039;" horiz-adv-x="880" d="M80 550v325l720 300v-275l-450 -187l450 -188v-275z" />
<glyph unicode="&#x203a;" horiz-adv-x="880" d="M80 250v275l450 188l-450 187v275l720 -300v-325z" />
<glyph unicode="&#x205f;" horiz-adv-x="543" />
<glyph unicode="&#x20ac;" d="M80 425v225h160v125h-160v225h160v275q0 150 120 150h600l-120 -300h-280q-40 0 -40 -50v-75h280v-225h-280v-125h280v-225h-280v-75q0 -50 40 -50h400l-120 -300h-480q-120 0 -120 150v275h-160z" />
<glyph unicode="&#x2122;" horiz-adv-x="1300" d="M80 1425h421v-150h-111v-562h-140v562h-169zM560 1425h600q60 0 60 -75v-637h-140v537q0 25 -20 25h-99v-562h-141v562h-120v-562h-139z" />
<glyph unicode="&#x25fc;" horiz-adv-x="1425" d="M0 0v1425h1425v-1425h-1425z" />
</font>
</defs>
</svg>
